#!OML:ASF F:\VICON\USERDATA\INSTALL\rory3\rory3.ASF
:FULLY-SPECIFIED
:DEGREES
1
root -0.283217 16.7024 -30.258299999999977 1.6083899999999984 -4.5762999999999945 -5.020459999999994
lfemur -26.970100000000013 7.1471999999999944 -12.865699999999988
ltibia 94.40939999999995
lfoot -1.116879999999999 -9.647100000000002
ltoes -10.676599999999999
rfemur -17.4492 4.343319999999997 33.86590000000001
rtibia 56.6605
rfoot -27.753300000000067 -15.055700000000012
rtoes -10.540499999999993
lowerback -8.881784189112644e-10 0.18362699999999876 2.417289999999998
upperback 0.1508810000000016 1.0087200000000003 3.8269799999999967
thorax -8.57369 0.4716610000000002 2.518809999999997
lowerneck -16.514799999999997 -2.559269999999998 -3.0392599999999996
upperneck 15.039200000000001 -3.171210000000001 2.312409999999999
head 7.42531 -1.4721999999999977 0.9011029999999999
lclavicle 1.4213099999999975e-14 3.8166700000000035e-14
lhumerus -52.7196 -8.897670000000009 99.5379
lradius 105.17
lwrist 30.9924
lhand -26.4697 6.2838499999999975
lfingers 7.12502
lthumb 0.09208150000000048 36.2636
rclavicle 1.4213099999999975e-14 3.8166700000000035e-14
rhumerus -40.1877 13.116400000000013 -97.9002
rradius 100.929
rwrist -17.727999999999998
rhand -21.955499999999997 -8.881784189112644e-10
rfingers 7.12502
rthumb 4.451709999999997 7.97566
2
root -0.2454320000000011 16.8591 -28.555199999999935 2.4433999999999996 -4.255629999999991 -5.935679999999996
lfemur -35.866599999999984 7.7519499999999795 -12.59370000000002
ltibia 92.0732
lfoot -3.9252699999999914 -8.148620000000003
ltoes -7.361800000000001
rfemur -9.645910000000015 5.000220000000004 34.846000000000004
rtibia 52.0664
rfoot -26.087299999999978 -14.96190000000001
rtoes -15.988800000000019
lowerback -8.881784189112644e-10 1.1222099999999995 4.066559999999996
upperback -0.0027153199999996325 2.519490000000002 3.5695099999999975
thorax -8.56394 1.1224499999999997 0.9714610000000011
lowerneck -16.997199999999996 -3.391019999999999 -2.59373
upperneck 14.862099999999998 -4.390809999999998 2.2771300000000014
head 7.4729 -2.0276599999999996 0.6724470000000001
lclavicle -2.604079999999992e-14 -1.7493100000000007e-14
lhumerus -57.30250000000001 -9.803830000000008 99.8051
lradius 106.73100000000001
lwrist 32.8334
lhand -25.5448 4.41732
lfingers 7.12502
lthumb 0.9854130000000003 34.3948
rclavicle -2.604079999999992e-14 -1.7493100000000007e-14
rhumerus -35.133799999999994 14.118599999999997 -97.2855
rradius 105.01
rwrist -18.9344
rhand -20.667 -8.881784189112644e-10
rfingers 7.12502
rthumb 5.6958400000000005 9.214330000000002
3
root -0.15109999999999923 17.2507 -26.665700000000044 3.6449800000000003 -2.451600000000002 -5.477580000000004
lfemur -41.661900000000074 5.082639999999985 -14.643400000000002
ltibia 82.80780000000001
lfoot -5.059679999999992 -4.490730000000008
ltoes -5.501109999999992
rfemur -1.9065100000000061 4.598450000000002 33.75329999999999
rtibia 45.72059999999999
rfoot -18.6353 -11.016899999999996
rtoes -20.87189999999995
lowerback -8.881784189112644e-10 1.5643100000000008 5.164789999999995
upperback -0.7267749999999998 3.156970000000003 2.9631999999999965
thorax -8.23307 1.371999999999999 -0.38568000000000036
lowerneck -16.129699999999996 -4.07952 -2.6743200000000003
upperneck 14.723999999999998 -5.359 2.4481100000000007
head 7.31011 -2.48754 0.6462479999999996
lclavicle 3.2004300000000005e-14 6.321350000000003e-14
lhumerus -61.865600000000015 -9.146900000000006 99.7574
lradius 107.407
lwrist 33.1024
lhand -26.9033 4.0387200000000005
lfingers 7.12502
lthumb -0.32665599999999884 34.0182
rclavicle 3.2004300000000005e-14 6.321350000000003e-14
rhumerus -33.3451 13.8385 -96.4806
rradius 108.467
rwrist -18.9553
rhand -20.5018 -8.881784189112644e-10
rfingers 7.12502
rthumb 5.855390000000002 8.84599
4
root -0.08473269999999955 17.6939 -24.743300000000005 3.28367 -0.028520400000000112 -5.1164999999999905
lfemur -42.17369999999996 1.5078799999999997 -15.702400000000008
ltibia 68.26940000000002
lfoot -6.987260000000008 -5.41874
ltoes -10.027
rfemur 6.202050000000021 3.369740000000001 32.70420000000001
rtibia 38.64409999999998
rfoot -3.5133500000000013 -5.90147
rtoes -20.214299999999998
lowerback -8.881784189112644e-10 1.8081699999999992 6.060459999999992
upperback -0.9065480000000008 3.5270199999999985 2.3600999999999988
thorax -7.919 1.5063100000000007 -1.573880000000002
lowerneck -15.307799999999995 -4.516729999999999 -2.56165
upperneck 14.630700000000001 -6.09906 3.01007
head 7.17337 -2.7929299999999992 0.745189
lclavicle 2.827710000000002e-14 3.1805500000000008e-15
lhumerus -64.89359999999998 -7.935290000000006 98.6537
lradius 107.371
lwrist 32.1074
lhand -26.3594 3.7137699999999993
lfingers 7.12502
lthumb 0.19865899999999959 33.6934
rclavicle 2.827710000000002e-14 3.1805500000000008e-15
rhumerus -32.5487 12.705699999999995 -95.6287
rradius 109.854
rwrist -18.9149
rhand -20.963599999999996 -8.881784189112644e-10
rfingers 7.12502
rthumb 5.409539999999996 9.237210000000001
